<svg viewBox="0 0 24 24" fill="none" xmlns="http://www.w3.org/2000/svg">
    <path d="M21.3865 20.2545L17.9795 16.8485C19.4308 15.1062 20.1544 12.8715 20 10.6093C19.8455 8.34702 18.8249 6.2314 17.1503 4.70251C15.4757 3.17363 13.2762 2.34919 11.0092 2.40071C8.74231 2.45223 6.5825 3.37574 4.97912 4.97912C3.37574 6.5825 2.45223 8.74231 2.40071 11.0092C2.34919 13.2762 3.17363 15.4757 4.70251 17.1503C6.2314 18.8249 8.34702 19.8455 10.6093 20C12.8715 20.1544 15.1062 19.4308 16.8485 17.9795L20.2545 21.3865C20.3289 21.4609 20.4171 21.5198 20.5142 21.5601C20.6113 21.6003 20.7154 21.621 20.8205 21.621C20.9257 21.621 21.0297 21.6003 21.1269 21.5601C21.224 21.5198 21.3122 21.4609 21.3865 21.3865C21.4609 21.3122 21.5198 21.224 21.5601 21.1269C21.6003 21.0297 21.621 20.9257 21.621 20.8205C21.621 20.7154 21.6003 20.6113 21.5601 20.5142C21.5198 20.4171 21.4609 20.3289 21.3865 20.2545ZM4.02054 11.2205C4.02054 9.79652 4.44281 8.40447 5.23396 7.22043C6.02511 6.0364 7.14959 5.11356 8.46522 4.56861C9.78085 4.02366 11.2285 3.88107 12.6252 4.15889C14.0219 4.4367 15.3048 5.12243 16.3117 6.12937C17.3186 7.13631 18.0044 8.41923 18.2822 9.81589C18.56 11.2126 18.4174 12.6602 17.8725 13.9759C17.3275 15.2915 16.4047 16.416 15.2206 17.2071C14.0366 17.9983 12.6446 18.4205 11.2205 18.4205C9.31163 18.4184 7.48151 17.6592 6.13171 16.3094C4.78191 14.9596 4.02266 13.1294 4.02054 11.2205Z" fill="#FBEDDA"></path>
</svg>